<?xml version="1.0" encoding="utf-8"?>
<!-- Generator: Adobe Illustrator 19.2.0, SVG Export Plug-In . SVG Version: 6.00 Build 0)  -->
<svg version="1.1" id="Layer_1" xmlns="http://www.w3.org/2000/svg" xmlns:xlink="http://www.w3.org/1999/xlink" x="0px" y="0px"
	 viewBox="0 0 51.4 62.5" style="enable-background:new 0 0 51.4 62.5;" xml:space="preserve">
<style type="text/css">
	.st0{fill:#FFFFFF;}
</style>
<title>download_button1</title>
<rect x="5.9" y="20.7" class="st0" width="10.4" height="26.3"/>
<rect x="14.1" y="24.9" class="st0" width="4" height="22.5"/>
<rect x="5.9" y="27.9" class="st0" width="39.6" height="20.8"/>
<rect x="32.1" y="24.9" class="st0" width="13.4" height="21.4"/>
<rect x="19.9" y="5.3" class="st0" width="10.4" height="14.1"/>
<polygon class="st0" points="34.7,16.5 25.4,25.5 16,16.5 "/>
<path class="st0" d="M3.9,53.4c0.6-0.1,1.3-0.1,1.9-0.1c1-0.1,2.1,0.2,2.9,0.9c0.7,0.7,1,1.6,1,2.6c0.1,1-0.3,2-1.1,2.7
	c-0.9,0.7-2,1.1-3.2,1c-0.6,0-1.2,0-1.7-0.1v-7L3.9,53.4L3.9,53.4z M4.8,59.6c0.3,0,0.5,0.1,1,0.1c1.5,0.2,2.8-0.9,3-2.4
	c0-0.2,0-0.4,0-0.6c0.1-1.4-1-2.6-2.4-2.7c-0.2,0-0.4,0-0.6,0c-0.4,0-0.7,0-1.1,0.1L4.8,59.6L4.8,59.6L4.8,59.6z"/>
<path class="st0" d="M15.5,57.8c0.1,1.4-1,2.6-2.4,2.7h-0.2c-1.4,0-2.5-1.1-2.5-2.4l0,0c0-0.1,0-0.1,0-0.2c-0.1-1.4,1-2.6,2.4-2.7
	H13c1.3,0,2.4,1,2.5,2.4C15.5,57.6,15.5,57.7,15.5,57.8z M11.5,57.9c-0.1,0.9,0.5,1.8,1.4,1.9h0.2c1-0.1,1.7-1,1.6-1.9v-0.1
	c0.1-0.9-0.5-1.8-1.4-2l0,0h-0.1c-1,0-1.7,0.8-1.7,1.8C11.4,57.7,11.4,57.8,11.5,57.9L11.5,57.9z"/>
<path class="st0" d="M17,55.2l0.7,2.6c0.2,0.5,0.3,1.1,0.3,1.6l0,0c0.1-0.5,0.3-1.1,0.4-1.6l0.8-2.6H20l0.8,2.6
	c0.2,0.5,0.3,1.1,0.4,1.7l0,0c0.1-0.5,0.3-1.1,0.3-1.7l0.7-2.6h0.9l-1.5,5.1h-0.9l-0.8-2.4c-0.2-0.5-0.3-1.1-0.4-1.7l0,0
	c-0.1,0.6-0.2,1.1-0.4,1.7l-0.8,2.5h-0.9l-1.6-5.1L17,55.2C17,55.3,17,55.2,17,55.2z"/>
<path class="st0" d="M24.4,56.6v-1.4h0.8l0.1,0.9l0,0c0.3-0.6,1-1,1.7-1c1.1,0,1.9,0.9,1.8,2c0,0.1,0,0.2,0,0.2v3.1h-0.9v-2.9
	c0.2-0.7-0.3-1.3-0.9-1.5h-0.2c-0.6,0-1.1,0.4-1.2,1c0,0.1-0.1,0.3-0.1,0.4v3.1h-1L24.4,56.6L24.4,56.6z"/>
<path class="st0" d="M30.3,52.9h1v7.5h-1V52.9z"/>
<path class="st0" d="M37.4,57.8c0.1,1.4-1,2.6-2.4,2.7h-0.2c-1.4,0-2.5-1.1-2.5-2.4l0,0c0-0.1,0-0.1,0-0.2c-0.1-1.4,1-2.6,2.4-2.7
	h0.2c1.3-0.1,2.5,1,2.5,2.3C37.4,57.6,37.4,57.7,37.4,57.8z M33.3,57.9c-0.1,0.9,0.5,1.8,1.4,1.9h0.2c1-0.1,1.7-1,1.6-1.9v-0.1
	c0.1-0.9-0.5-1.8-1.4-2l0,0l0,0c-1,0-1.8,0.9-1.7,1.9l0,0L33.3,57.9L33.3,57.9L33.3,57.9z"/>
<path class="st0" d="M41.5,60.4l-0.1-0.6l0,0c-0.3,0.5-1,0.8-1.6,0.8c-0.8,0.1-1.5-0.5-1.6-1.3c0-0.1,0-0.1,0-0.2
	c0-1.2,1.1-1.9,3.1-1.9v-0.1c0.1-0.6-0.3-1.1-0.9-1.2l0,0h-0.2c-0.5,0-0.9,0.1-1.3,0.3l-0.3-0.6c0.5-0.3,1.1-0.4,1.7-0.4
	c1-0.1,1.9,0.6,2,1.6c0,0.2,0,0.3,0,0.5v1.9c0,0.4,0,0.8,0.1,1.2H41.5L41.5,60.4L41.5,60.4z M41.3,57.8c-1.1,0-2.2,0.2-2.2,1.1
	c0,0.4,0.3,0.8,0.8,0.9H40c0.6,0,1.1-0.3,1.2-0.9c0-0.1,0.1-0.2,0.1-0.3L41.3,57.8L41.3,57.8z"/>
<path class="st0" d="M48.2,52.9v7.5h-0.8v-0.9l0,0c-0.3,0.6-1,1-1.7,1c-1.3-0.1-2.3-1.2-2.2-2.5l0,0v-0.1c-0.1-1.4,0.8-2.6,2.2-2.7
	h0.1c0.6,0,1.2,0.3,1.6,0.8l0,0v-3.1H48.2L48.2,52.9L48.2,52.9L48.2,52.9z M47.2,57.3V57c-0.1-0.6-0.7-1.1-1.3-1.1
	c-0.9,0.1-1.6,0.9-1.5,1.8l0,0v0.1c-0.1,0.9,0.4,1.7,1.3,1.8l0,0h0.2c0.7,0,1.3-0.5,1.4-1.1L47.2,57.3L47.2,57.3z"/>
</svg>
