<?xml version="1.0" encoding="utf-8"?>
<!-- Generator: Adobe Illustrator 22.0.0, SVG Export Plug-In . SVG Version: 6.00 Build 0)  -->
<svg version="1.1" id="Layer_1" xmlns="http://www.w3.org/2000/svg" xmlns:xlink="http://www.w3.org/1999/xlink" x="0px" y="0px"
	 viewBox="0 0 87 79.5" style="enable-background:new 0 0 87 79.5;" xml:space="preserve">
<style type="text/css">
	.st0{fill:none;}
	.st1{enable-background:new    ;}
	.st2{fill:#FFFFFF;}
</style>
<rect x="2.9" y="59.7" class="st0" width="81.8" height="9.4"/>
<g class="st1">
	<path class="st2" d="M23.3,67.7l-2.2-8.1h1.1l1.2,5.3c0.1,0.6,0.3,1.1,0.4,1.7c0.2-0.8,0.3-1.3,0.4-1.5l1.5-5.5H27l1.1,4
		c0.3,1,0.5,2,0.7,2.8c0.1-0.5,0.3-1.1,0.4-1.8l1.2-5.2h1l-2.2,8.2h-1l-1.7-6.1c-0.2-0.5-0.2-0.8-0.3-0.9c-0.1,0.4-0.2,0.7-0.3,0.9
		l-1.7,6.1L23.3,67.7L23.3,67.7z"/>
	<path class="st2" d="M35.8,67c-0.4,0.3-0.8,0.6-1,0.7s-0.7,0.2-1.1,0.2c-0.7,0-1.1-0.2-1.5-0.5s-0.6-0.8-0.6-1.2
		c0-0.3,0.1-0.6,0.2-0.8c0.1-0.2,0.3-0.5,0.5-0.6s0.5-0.3,0.8-0.3c0.2-0.1,0.5-0.1,0.8-0.2c0.8-0.1,1.4-0.2,1.8-0.4
		c0-0.1,0-0.2,0-0.3c0-0.4-0.1-0.7-0.3-0.8c-0.3-0.2-0.7-0.4-1.1-0.4s-0.8,0.1-1,0.3s-0.4,0.5-0.5,0.8l-0.9-0.1
		c0.1-0.4,0.2-0.8,0.5-1s0.5-0.5,0.8-0.6s0.8-0.2,1.3-0.2s0.9,0.1,1.2,0.2s0.6,0.3,0.7,0.5c0.1,0.2,0.3,0.4,0.3,0.7
		c0,0.2,0.1,0.5,0.1,0.9v1.2c0,0.9,0,1.5,0.1,1.8s0.1,0.5,0.3,0.7h-1C35.9,67.5,35.8,67.3,35.8,67z M35.7,64.8
		c-0.4,0.2-0.9,0.3-1.6,0.4c-0.4,0.1-0.7,0.1-0.8,0.2c-0.2,0.1-0.3,0.2-0.4,0.3c-0.1,0.1-0.1,0.3-0.1,0.5c0,0.3,0.1,0.5,0.3,0.7
		s0.5,0.3,0.8,0.3s0.8-0.1,1-0.3c0.3-0.2,0.5-0.4,0.7-0.7c0.1-0.2,0.2-0.6,0.2-1L35.7,64.8L35.7,64.8z"/>
	<path class="st2" d="M38.3,67.7v-5.8h0.8v0.8c0.2-0.4,0.5-0.7,0.7-0.8c0.2-0.2,0.4-0.2,0.7-0.2c0.4,0,0.7,0.1,1,0.3l-0.4,0.9
		c-0.3-0.2-0.5-0.2-0.8-0.2c-0.2,0-0.4,0.1-0.6,0.2c-0.2,0.1-0.3,0.3-0.4,0.6c-0.1,0.4-0.2,0.8-0.2,1.1v3.1H38.3z"/>
	<path class="st2" d="M45.9,67.7v-0.8c-0.4,0.6-0.9,0.8-1.6,0.8c-0.5,0-0.9-0.1-1.3-0.4s-0.7-0.7-0.9-1c-0.3-0.4-0.3-1-0.3-1.6
		s0.1-1.1,0.3-1.6s0.5-0.8,0.8-1.1s0.8-0.4,1.3-0.4c0.4,0,0.7,0.1,0.9,0.2c0.3,0.2,0.5,0.4,0.7,0.6v-2.8h0.9v8.1H45.9z M42.7,64.8
		c0,0.8,0.2,1.3,0.5,1.7c0.3,0.4,0.7,0.6,1.1,0.6s0.8-0.2,1.1-0.6s0.5-0.9,0.5-1.6c0-0.8-0.2-1.4-0.5-1.8s-0.7-0.6-1.1-0.6
		s-0.8,0.2-1.1,0.6S42.7,64,42.7,64.8z"/>
	<path class="st2" d="M48.3,67.7v-5.8h0.8v0.8c0.2-0.4,0.5-0.7,0.7-0.8c0.2-0.2,0.4-0.2,0.7-0.2c0.4,0,0.7,0.1,1,0.3l-0.4,0.9
		c-0.3-0.2-0.5-0.2-0.8-0.2c-0.2,0-0.4,0.1-0.6,0.2c-0.2,0.1-0.3,0.3-0.4,0.6c-0.1,0.4-0.2,0.8-0.2,1.1v3.1H48.3z"/>
	<path class="st2" d="M51.7,64.8c0-1.1,0.3-1.9,0.9-2.4c0.5-0.5,1.1-0.7,1.9-0.7c0.8,0,1.5,0.3,2,0.8s0.8,1.2,0.8,2.2
		c0,0.8-0.1,1.3-0.4,1.8c-0.3,0.5-0.6,0.8-0.9,1c-0.4,0.3-0.9,0.4-1.4,0.4c-0.8,0-1.5-0.3-2-0.8S51.7,65.8,51.7,64.8z M52.8,64.8
		c0,0.8,0.2,1.3,0.5,1.7c0.3,0.4,0.8,0.6,1.2,0.6s0.9-0.2,1.2-0.6s0.5-0.9,0.5-1.7s-0.2-1.3-0.5-1.6s-0.8-0.6-1.2-0.6
		s-0.9,0.2-1.2,0.6C53,63.5,52.8,64,52.8,64.8z"/>
	<path class="st2" d="M59.3,67.7h-0.9v-8.1h1v2.9c0.4-0.6,0.9-0.8,1.6-0.8c0.4,0,0.7,0.1,1,0.2c0.4,0.1,0.6,0.4,0.8,0.7
		s0.4,0.6,0.5,0.9c0.1,0.4,0.2,0.8,0.2,1.2c0,1-0.3,1.8-0.8,2.4s-1.1,0.8-1.8,0.8s-1.2-0.3-1.6-0.8C59.3,67.1,59.3,67.7,59.3,67.7z
		 M59.3,64.8c0,0.7,0.1,1.2,0.3,1.5c0.3,0.5,0.8,0.8,1.2,0.8s0.8-0.2,1.1-0.6s0.5-0.9,0.5-1.7s-0.2-1.3-0.5-1.7s-0.7-0.6-1.1-0.6
		s-0.8,0.2-1.1,0.6C59.3,63.5,59.3,64,59.3,64.8z"/>
	<path class="st2" d="M68.7,65.8l1,0.1c-0.2,0.6-0.5,1-0.9,1.4c-0.5,0.4-1,0.5-1.7,0.5c-0.8,0-1.5-0.3-2.1-0.8s-0.8-1.2-0.8-2.3
		c0-0.9,0.3-1.8,0.8-2.3s1.1-0.8,2-0.8c0.8,0,1.4,0.3,1.9,0.8s0.8,1.3,0.8,2.3c0,0.1,0,0.2,0,0.3h-4.3c0,0.7,0.2,1.1,0.6,1.5
		s0.8,0.5,1.2,0.5c0.4,0,0.7-0.1,0.9-0.3C68.3,66.5,68.5,66.3,68.7,65.8z M65.4,64.2h3.3c0-0.5-0.2-0.8-0.4-1.1
		c-0.3-0.4-0.8-0.6-1.2-0.6c-0.5,0-0.8,0.2-1.1,0.5C65.7,63.3,65.5,63.7,65.4,64.2z"/>
</g>
<g>
	<g>
		<path class="st2" d="M57.1,31.1v-4.2l6.6,4.7l8.5-8.9L52.5,8.2c0,0-7.6,10.8-17.7,0L15.1,22.8l9.1,8.8l6.6-4.6"/>
		<rect x="30.8" y="50.6" class="st2" width="22.2" height="5.2"/>
		<rect x="30.8" y="26" class="st2" width="15.4" height="27.6"/>
		<rect x="39.4" y="26" class="st2" width="13.5" height="16.5"/>
		<rect x="52.1" y="25.8" class="st2" width="5" height="10"/>
	</g>
	<g>
		<rect x="47.8" y="44" class="st2" width="18.5" height="4.9"/>
		<rect x="54.6" y="37.2" class="st2" width="4.9" height="18.5"/>
	</g>
</g>
</svg>
