<?xml version="1.0" encoding="utf-8"?>
<!-- Generator: Adobe Illustrator 22.0.0, SVG Export Plug-In . SVG Version: 6.00 Build 0)  -->
<svg version="1.1" id="Layer_1" xmlns="http://www.w3.org/2000/svg" xmlns:xlink="http://www.w3.org/1999/xlink" x="0px" y="0px"
	 viewBox="0 0 87 79.5" style="enable-background:new 0 0 87 79.5;" xml:space="preserve">
<style type="text/css">
	.st0{fill:none;}
	.st1{enable-background:new    ;}
	.st2{fill:#FFFFFF;}
</style>
<rect x="-17.5" y="85.6" class="st0" width="87" height="10"/>
<g class="st1">
	<path class="st2" d="M22.1,68.6l-2.2-8.1H21l1.3,5.4c0.1,0.6,0.2,1.2,0.4,1.7c0.2-0.8,0.4-1.4,0.4-1.5l1.5-5.5h1.4l1.2,4.1
		c0.4,1.1,0.5,1.9,0.6,2.9c0.1-0.5,0.2-1.1,0.4-1.8l1.3-5.3h1.1l-2.2,8.1H27l-1.8-6.1c-0.1-0.5-0.2-0.8-0.2-1
		c-0.1,0.4-0.1,0.7-0.2,1l-1.8,6.1C23,68.6,22.1,68.6,22.1,68.6z"/>
	<path class="st2" d="M35,67.8c-0.4,0.4-0.7,0.6-1.1,0.7s-0.7,0.2-1.1,0.2c-0.7,0-1.2-0.1-1.5-0.5c-0.4-0.4-0.5-0.7-0.5-1.2
		c0-0.2,0.1-0.6,0.2-0.8c0.1-0.2,0.4-0.5,0.5-0.6c0.2-0.1,0.5-0.2,0.7-0.4c0.2,0,0.5-0.1,1-0.1c0.8-0.1,1.4-0.2,1.8-0.4
		c0-0.1,0-0.2,0-0.2c0-0.4-0.1-0.7-0.2-0.8c-0.2-0.2-0.6-0.4-1.2-0.4c-0.5,0-0.8,0.1-1.1,0.2c-0.2,0.1-0.4,0.5-0.5,0.8l-1.2-0.2
		c0.1-0.5,0.2-0.7,0.5-1.1c0.2-0.2,0.5-0.5,1-0.6c0.4-0.1,0.8-0.2,1.3-0.2c0.5,0,1,0.1,1.3,0.2c0.4,0.1,0.6,0.2,0.7,0.5
		c0.1,0.2,0.2,0.4,0.4,0.7c0,0.1,0,0.5,0,1V66c0,1,0,1.5,0.1,1.8c0,0.2,0.1,0.5,0.2,0.7h-1.2C35.1,68.3,35,68.1,35,67.8z M34.9,65.7
		c-0.4,0.1-1,0.2-1.7,0.4c-0.5,0.1-0.7,0.1-0.8,0.2s-0.4,0.2-0.4,0.4C32,66.8,32,67.1,32,67.1c0,0.2,0.1,0.5,0.4,0.7
		c0.2,0.2,0.5,0.2,1,0.2c0.4,0,0.7-0.1,1.1-0.2c0.4-0.1,0.5-0.4,0.7-0.7c0.1-0.2,0.1-0.6,0.1-1.1v-0.4H34.9z"/>
	<path class="st2" d="M37.5,68.6v-5.9h1v1c0.2-0.5,0.5-0.7,0.6-0.8c0.2-0.1,0.4-0.2,0.6-0.2c0.4,0,0.7,0.1,1.1,0.4l-0.4,1
		c-0.2-0.1-0.5-0.2-0.7-0.2c-0.2,0-0.5,0.1-0.6,0.2c-0.1,0.1-0.4,0.4-0.4,0.6c-0.1,0.4-0.1,0.7-0.1,1.2v3h-1.1V68.6z"/>
	<path class="st2" d="M45.3,68.6v-0.7c-0.4,0.6-1,1-1.7,1c-0.5,0-1-0.1-1.3-0.4c-0.4-0.2-0.7-0.6-1-1.1C41.2,67,41,66.4,41,65.8
		s0.1-1.2,0.4-1.7c0.2-0.5,0.5-0.8,1-1.1c0.4-0.2,0.8-0.4,1.3-0.4c0.4,0,0.7,0.1,1,0.2c0.2,0.1,0.5,0.4,0.7,0.6v-2.9h1v8.1
		L45.3,68.6L45.3,68.6z M42.2,65.7c0,0.7,0.1,1.3,0.5,1.8c0.4,0.5,0.7,0.6,1.2,0.6c0.5,0,0.8-0.2,1.2-0.6c0.4-0.4,0.5-1,0.5-1.7
		c0-0.8-0.1-1.4-0.5-1.8c-0.4-0.4-0.7-0.6-1.2-0.6c-0.5,0-0.8,0.2-1.2,0.6C42.3,64.3,42.2,64.9,42.2,65.7z"/>
	<path class="st2" d="M47.8,68.6v-5.9h1v1c0.2-0.5,0.5-0.7,0.6-0.8c0.2-0.1,0.4-0.2,0.6-0.2c0.4,0,0.7,0.1,1.1,0.4l-0.4,1
		c-0.2-0.1-0.5-0.2-0.7-0.2s-0.5,0.1-0.6,0.2c-0.1,0.1-0.4,0.4-0.4,0.6c-0.1,0.4-0.1,0.7-0.1,1.2v3h-1.1V68.6z"/>
	<path class="st2" d="M51.4,65.7c0-1.1,0.4-1.8,1-2.4c0.5-0.5,1.2-0.7,1.8-0.7c0.8,0,1.5,0.2,1.9,0.8c0.5,0.6,0.8,1.3,0.8,2.2
		c0,0.8-0.1,1.4-0.4,1.8c-0.2,0.4-0.6,0.8-1.1,1.1c-0.5,0.2-1,0.4-1.4,0.4c-0.8,0-1.5-0.2-1.9-0.8C51.7,67.4,51.4,66.6,51.4,65.7z
		 M52.5,65.7c0,0.7,0.1,1.3,0.5,1.8c0.4,0.4,0.7,0.6,1.3,0.6c0.5,0,1-0.2,1.3-0.6c0.4-0.4,0.5-1,0.5-1.8c0-0.7-0.1-1.3-0.5-1.7
		c-0.4-0.4-0.7-0.6-1.3-0.6c-0.5,0-1,0.2-1.3,0.6C52.7,64.4,52.5,64.9,52.5,65.7z"/>
	<path class="st2" d="M59.2,68.6h-1v-8.1h1.1v2.9c0.5-0.6,1-0.8,1.7-0.8c0.4,0,0.7,0.1,1.1,0.2c0.4,0.1,0.6,0.4,0.8,0.6
		c0.2,0.2,0.4,0.6,0.5,1c0.1,0.4,0.2,0.8,0.2,1.2c0,1.1-0.2,1.8-0.7,2.3s-1.1,0.8-1.8,0.8c-0.7,0-1.3-0.2-1.7-0.8v0.8L59.2,68.6
		L59.2,68.6z M59.2,65.7c0,0.7,0.1,1.2,0.2,1.5c0.4,0.5,0.7,0.8,1.3,0.8c0.5,0,0.8-0.2,1.2-0.6c0.4-0.4,0.5-1,0.5-1.8
		c0-0.8-0.1-1.3-0.5-1.8c-0.4-0.5-0.7-0.6-1.1-0.6c-0.5,0-0.8,0.2-1.2,0.6C59.4,64.4,59.2,64.9,59.2,65.7z"/>
	<path class="st2" d="M68.8,66.8l1.1,0.1c-0.1,0.6-0.5,1.1-1,1.4c-0.5,0.4-1.1,0.5-1.7,0.5c-0.8,0-1.5-0.2-2-0.8
		c-0.5-0.6-0.7-1.3-0.7-2.2c0-1.1,0.2-1.8,0.8-2.3c0.5-0.6,1.2-0.8,1.9-0.8c0.8,0,1.4,0.2,1.9,0.8c0.5,0.6,0.7,1.3,0.7,2.2
		c0,0.1,0,0.1,0,0.2h-4.4c0,0.7,0.2,1.2,0.6,1.5c0.4,0.4,0.7,0.5,1.3,0.5c0.4,0,0.7-0.1,1-0.2C68.6,67.4,68.7,67.1,68.8,66.8z
		 M65.6,65.1h3.2c0-0.5-0.1-0.8-0.4-1.2c-0.4-0.4-0.7-0.6-1.3-0.6c-0.5,0-0.8,0.1-1.2,0.5C65.6,64.1,65.6,64.6,65.6,65.1z"/>
</g>
<g>
	<g>
		<path class="st2" d="M57.1,31.1v-4.2l6.6,4.7l8.5-8.9L52.5,8.2c0,0-7.6,10.8-17.7,0L15.1,22.8l9.1,8.8l6.6-4.6"/>
		<rect x="30.8" y="50.6" class="st2" width="22.2" height="5.2"/>
		<rect x="30.8" y="26" class="st2" width="15.4" height="27.6"/>
		<rect x="39.4" y="26" class="st2" width="13.5" height="16.5"/>
		<rect x="52.1" y="25.8" class="st2" width="5" height="10"/>
	</g>
	<g>
		<rect x="47.8" y="44" class="st2" width="18.5" height="4.9"/>
		<rect x="54.6" y="37.2" class="st2" width="4.9" height="18.5"/>
	</g>
</g>
</svg>
